HIERARCHY
ROOT Hips
{
	OFFSET	0.00	0.00	0.00
	CHANNELS 6 Xposition Yposition Zposition Zrotation Xrotation Yrotation
	JOINT LeftUpLeg
	{
		OFFSET	 0.126116	-0.014019	-0.065224
		CHANNELS 3 Zrotation Xrotation Yrotation
		JOINT LeftLeg
		{
			OFFSET	 0.000000	 0.000000	 0.569914
			CHANNELS 3 Zrotation Xrotation Yrotation
			JOINT LeftFoot
			{
				OFFSET	 0.000000	 0.000000	 0.544423
				CHANNELS 3 Zrotation Xrotation Yrotation
				JOINT LeftToeBase
				{
					OFFSET	 0.000000	 0.000000	 0.207117
					CHANNELS 3 Zrotation Xrotation Yrotation
					End Site
					{
						OFFSET	 0.000000	 0.000000	 0.207117
					}
				}
			}
		}
	}
	JOINT RightUpLeg
	{
		OFFSET	-0.124023	-0.008373	-0.065224
		CHANNELS 3 Zrotation Xrotation Yrotation
		JOINT RightLeg
		{
			OFFSET	 0.000000	 0.000000	 0.570047
			CHANNELS 3 Zrotation Xrotation Yrotation
			JOINT RightFoot
			{
				OFFSET	 0.000000	 0.000000	 0.544354
				CHANNELS 3 Zrotation Xrotation Yrotation
				JOINT RightToeBase
				{
					OFFSET	 0.000000	 0.000000	 0.207540
					CHANNELS 3 Zrotation Xrotation Yrotation
					End Site
					{
						OFFSET	 0.000000	 0.000000	 0.207540
					}
				}
			}
		}
	}
	JOINT Spine
	{
		OFFSET	 0.000184	-0.007763	 0.117403
		CHANNELS 3 Zrotation Xrotation Yrotation
		JOINT Spine1
		{
			OFFSET	 0.000000	 0.000000	 0.137269
			CHANNELS 3 Zrotation Xrotation Yrotation
			JOINT Spine2
			{
				OFFSET	 0.000000	 0.000000	 0.156879
				CHANNELS 3 Zrotation Xrotation Yrotation
				JOINT LeftShoulder
				{
					OFFSET	 0.080501	-0.002496	 0.160144
					CHANNELS 3 Zrotation Xrotation Yrotation
					JOINT LeftArm
					{
						OFFSET	 0.000000	 0.000000	 0.164363
						CHANNELS 3 Zrotation Xrotation Yrotation
						JOINT LeftForeArm
						{
							OFFSET	 0.000000	 0.000000	 0.364576
							CHANNELS 3 Zrotation Xrotation Yrotation
							JOINT LeftHand
							{
								OFFSET	 0.000000	 0.000000	 0.360812
								CHANNELS 3 Zrotation Xrotation Yrotation
								JOINT LeftHandIndex1
								{
									OFFSET	 0.000000	 0.000000	 0.086006
									CHANNELS 3 Zrotation Xrotation Yrotation
									JOINT LeftHandIndex2
									{
										OFFSET	 0.000000	 0.000000	 0.047236
										CHANNELS 3 Zrotation Xrotation Yrotation
										JOINT LeftHandIndex3
										{
											OFFSET	-0.004284	-0.000551	 0.038166
											CHANNELS 3 Zrotation Xrotation Yrotation
											End Site
											{
												OFFSET	-0.004284	-0.000551	 0.038166
											}
										}
									}
								}
							}
						}
					}
				}
				JOINT Neck
				{
					OFFSET	 0.000000	 0.000000	 0.176489
					CHANNELS 3 Zrotation Xrotation Yrotation
					JOINT Head
					{
						OFFSET	 0.000000	-0.001747	 0.077940
						CHANNELS 3 Zrotation Xrotation Yrotation
						End Site
						{
							OFFSET	 0.000000	-0.001747	 0.077940
						}
					}
				}
				JOINT RightShoulder
				{
					OFFSET	-0.080363	 0.000306	 0.159706
					CHANNELS 3 Zrotation Xrotation Yrotation
					JOINT RightArm
					{
						OFFSET	 0.000000	 0.000000	 0.164196
						CHANNELS 3 Zrotation Xrotation Yrotation
						JOINT RightForeArm
						{
							OFFSET	 0.000000	 0.000000	 0.365611
							CHANNELS 3 Zrotation Xrotation Yrotation
							JOINT RightHand
							{
								OFFSET	 0.000000	 0.000000	 0.360648
								CHANNELS 3 Zrotation Xrotation Yrotation
								JOINT RightHandIndex1
								{
									OFFSET	 0.000000	 0.000000	 0.069977
									CHANNELS 3 Zrotation Xrotation Yrotation
									JOINT RightHandIndex2
									{
										OFFSET	 0.000000	 0.000000	 0.052305
										CHANNELS 3 Zrotation Xrotation Yrotation
										JOINT RightHandIndex3
										{
											OFFSET	 0.009002	-0.000782	 0.042196
											CHANNELS 3 Zrotation Xrotation Yrotation
											End Site
											{
												OFFSET	 0.009002	-0.000782	 0.042196
											}
										}
									}
								}
							}
						}
					}
				}
			}
		}
	}
}
MOTION
Frames:    10
Frame Time: 0.03333334
-0.035948	 0.261231	 1.013555	 3.188866	 33.294420	-8.380554	 41.622220	-81.286160	-141.509400	 6.878515	-72.266710	 6.951902	 43.866480	 82.715380	-47.004860	-2.385832	 28.452790	-0.000001	 71.320680	-80.245250	-109.860800	-19.060790	-76.373870	-13.537480	 14.831880	 83.445910	 1.405203	 2.384659	 28.388700	-0.000001	-9.974637	 14.973470	 0.577406	-1.780375	 20.726350	 1.009024	-5.225377	 0.046673	 4.184902	-99.165600	 68.202130	 156.781100	 3.720362	-8.407946	-52.360950	-24.262290	 2.054786	-6.663121	-32.443560	-21.282830	-21.278640	-2.027600	 6.559038	 9.033609	-5.188889	 0.308190	 3.541030	-5.234859	 0.342567	 0.430617	 0.385863	 17.755670	-6.087649	-4.085242	-26.805020	-2.667318	 97.456440	 64.644170	-159.208900	-7.820335	 5.064050	 58.515600	 7.066329	 8.283180	 29.121410	 16.432570	-20.753190	 16.692220	 1.803333	 3.979147	-15.098590	 4.898592	 3.004813	-9.310344	 5.224449	 0.395017	 2.014677
-0.034688	 0.260046	 1.021273	 2.997746	 32.653900	-8.025768	 36.078770	-80.228390	-147.130900	 6.207717	-71.230590	 6.274879	 42.095540	 82.540540	-45.091660	-2.385832	 28.452790	-0.000001	 62.451730	-79.956480	-118.601000	-18.246960	-75.297470	-12.685830	 14.607870	 83.257210	 1.620204	 2.384659	 28.388700	-0.000001	-9.572879	 14.820750	 0.484607	-1.644176	 20.927300	 0.832576	-5.223047	-0.524247	 3.989837	-99.019310	 68.227810	 157.191300	 3.974656	-7.189903	-52.722440	-24.098790	 2.054082	-6.664482	-32.535660	-21.108740	-21.429810	-2.027600	 6.559038	 9.033609	-5.188889	 0.308190	 3.541030	-5.234859	 0.342567	 0.430617	 0.033929	 15.722060	-5.200475	-4.305952	-24.774890	-3.006968	 97.349000	 64.558700	-159.568100	-8.406108	 5.220997	 57.932490	 7.240686	 8.711126	 30.172500	 16.398120	-20.510260	 17.295570	 1.803333	 3.979147	-15.098590	 4.898592	 3.004813	-9.310344	 5.224449	 0.395017	 2.014677
-0.033565	 0.258973	 1.028636	 2.901136	 32.066350	-7.753965	 31.715440	-79.178330	-151.472500	 5.794626	-70.188800	 5.846181	 39.861650	 82.285450	-42.834290	-2.385832	 28.452790	-0.000001	 54.720590	-79.485690	-126.136900	-17.573410	-74.266470	-11.975220	 14.255530	 83.028050	 1.927665	 2.384659	 28.388700	-0.000001	-9.219535	 14.687540	 0.423638	-1.497947	 21.122850	 0.638269	-5.255975	-1.060727	 3.813790	-98.770460	 68.481180	 157.579900	 4.270103	-5.877179	-53.219010	-23.907220	 2.051028	-6.662518	-32.666800	-21.043010	-21.713780	-2.027600	 6.559038	 9.033609	-5.188889	 0.308190	 3.541030	-5.234859	 0.342567	 0.430617	-0.232088	 13.553360	-4.666786	-4.400414	-22.618760	-3.086677	 97.222470	 64.351630	-160.088800	-9.005785	 5.130223	 57.502220	 7.305881	 9.093392	 31.208720	 16.110770	-20.151320	 17.799570	 1.803333	 3.979147	-15.098590	 4.898592	 3.004813	-9.310344	 5.224449	 0.395017	 2.014677
-0.032109	 0.257643	 1.037552	 2.798508	 31.374770	-7.450483	 27.554480	-77.836230	-155.595000	 5.351906	-68.898240	 5.383986	 37.348250	 81.954630	-40.280800	-2.385832	 28.452790	-0.000001	 46.531990	-78.674670	-134.086900	-16.845120	-72.992200	-11.200410	 13.820940	 82.737770	 2.322344	 2.384659	 28.388700	-0.000001	-8.809089	 14.511900	 0.355605	-1.327246	 21.254220	 0.431483	-5.302487	-1.627940	 3.611604	-98.491230	 68.769140	 158.020800	 4.678421	-4.317377	-53.734700	-23.614750	 2.045979	-6.657643	-32.872290	-21.039240	-22.083420	-2.027600	 6.559038	 9.033609	-5.188889	 0.308190	 3.541030	-5.234859	 0.342567	 0.430617	-0.505934	 11.098220	-4.082144	-4.491695	-20.183070	-3.163407	 97.076060	 64.117230	-160.676700	-9.739209	 5.043638	 56.877300	 7.335340	 9.563939	 32.524570	 15.793210	-19.765910	 18.365340	 1.803333	 3.979147	-15.098590	 4.898592	 3.004813	-9.310344	 5.224449	 0.395017	 2.014677
-0.030842	 0.256465	 1.045097	 2.688557	 30.750520	-7.163784	 24.616410	-76.620860	-158.535500	 5.026449	-67.804010	 5.041809	 35.468020	 81.683840	-38.368720	-2.385832	 28.452790	-0.000001	 40.318310	-77.808900	-140.116100	-16.347530	-71.886310	-10.659180	 13.603240	 82.504070	 2.506493	 2.384659	 28.388700	-0.000001	-8.487297	 14.361720	 0.301944	-1.210296	 21.378000	 0.285088	-5.339516	-2.181502	 3.420371	-98.143780	 69.234580	 158.412600	 5.117858	-2.805639	-54.204830	-23.456160	 2.039273	-6.650299	-32.973820	-21.015460	-22.504050	-2.027600	 6.559038	 9.033609	-5.188889	 0.308190	 3.541030	-5.234859	 0.342567	 0.430617	-0.699331	 8.706164	-3.558472	-4.589748	-17.840180	-3.279980	 96.930520	 64.130900	-161.040300	-10.389450	 5.360065	 56.309160	 7.144692	 9.857224	 33.654540	 15.472950	-19.453600	 18.692280	 1.803333	 3.979147	-15.098590	 4.898592	 3.004813	-9.310344	 5.224449	 0.395017	 2.014677
-0.029336	 0.254842	 1.053891	 2.557976	 29.995150	-6.815871	 21.745000	-75.128070	-161.427900	 4.691240	-66.523550	 4.686948	 33.477260	 81.378850	-36.329200	-2.385833	 28.452760	 0.000004	 34.008590	-76.616850	-146.218300	-15.858160	-70.573170	-10.114990	 13.406190	 82.238560	 2.677942	 2.384659	 28.388700	-0.000001	-8.112619	 14.173000	 0.239815	-1.081470	 21.504720	 0.140330	-5.386667	-2.856447	 3.181097	-97.678810	 69.896630	 158.880400	 5.676326	-0.935606	-54.778490	-23.171540	 2.028295	-6.636863	-33.185300	-21.061570	-23.134830	-2.027600	 6.559038	 9.033609	-5.188889	 0.308190	 3.541030	-5.234859	 0.342567	 0.430617	-0.886599	 5.739835	-2.936498	-4.703935	-14.950920	-3.433893	 96.750800	 64.256440	-161.400300	-11.173450	 5.937846	 55.622550	 6.793906	 10.148320	 35.048450	 15.071130	-19.116960	 19.002670	 1.803333	 3.979147	-15.098590	 4.898592	 3.004813	-9.310344	 5.224449	 0.395017	 2.014677
-0.027667	 0.252917	 1.063053	 2.441469	 29.213320	-6.446645	 19.304470	-73.531300	-163.894400	 4.420171	-65.172300	 4.391516	 31.644040	 81.055830	-34.442070	-2.385833	 28.452760	 0.000004	 28.528190	-75.220990	-151.482300	-15.432480	-69.168720	-9.626819	 13.282890	 81.959170	 2.808286	 2.384659	 28.388700	-0.000001	-7.716647	 13.961110	 0.162054	-0.940444	 21.594910	-0.015022	-5.436587	-3.534728	 2.948251	-97.127030	 70.731570	 159.347500	 6.268119	 1.098056	-55.440040	-22.861700	 2.016917	-6.622815	-33.422990	-21.176680	-23.781430	-2.027600	 6.559038	 9.033609	-5.188889	 0.308190	 3.541030	-5.234859	 0.342567	 0.430617	-1.043006	 2.678362	-2.418936	-4.777075	-11.978140	-3.492160	 96.509940	 64.544280	-161.790300	-11.996270	 6.716910	 55.028260	 6.376464	 10.428600	 36.556880	 14.714880	-18.912040	 19.324530	 1.803333	 3.979147	-15.098590	 4.898592	 3.004813	-9.310344	 5.224449	 0.395017	 2.014677
-0.025753	 0.250998	 1.072780	 2.325289	 28.383010	-6.007142	 17.147710	-71.819510	-166.110800	 4.298587	-63.713760	 4.229420	 30.032000	 80.697270	-32.831670	-2.385833	 28.452760	 0.000004	 23.616460	-73.617120	-156.174600	-15.121490	-67.608670	-9.236588	 13.324110	 81.664540	 2.827421	 2.384659	 28.388700	-0.000001	-7.308611	 13.769320	 0.051430	-0.782555	 21.703090	-0.242714	-5.469101	-4.265924	 2.764000	-96.255810	 72.168210	 159.772900	 6.952907	 3.609936	-56.467400	-22.502670	 1.999698	-6.600235	-33.761990	-21.399040	-24.420450	-2.027600	 6.559038	 9.033609	-5.188889	 0.308190	 3.541030	-5.234859	 0.342567	 0.430617	-1.182142	-0.592592	-2.280093	-4.760951	-8.821108	-3.237041	 96.048430	 65.426700	-162.265000	-12.860470	 8.172951	 54.907760	 5.839409	 10.611070	 38.053970	 14.525340	-19.115990	 19.656700	 1.803333	 3.979147	-15.098590	 4.898592	 3.004813	-9.310344	 5.224449	 0.395017	 2.014677
-0.023741	 0.248763	 1.082860	 2.223453	 27.552740	-5.570656	 15.332910	-70.023240	-167.984600	 4.181643	-62.166580	 4.068120	 28.429940	 80.306530	-31.214780	-2.385833	 28.452760	 0.000004	 19.513990	-71.853430	-160.052900	-14.819070	-65.947720	-8.846847	 13.221500	 81.327240	 3.018331	 2.384659	 28.388700	-0.000001	-6.891160	 13.539250	-0.056829	-0.626422	 21.740630	-0.442902	-5.510046	-4.957790	 2.572654	-95.353360	 73.599740	 160.152900	 7.682731	 6.131361	-57.485970	-22.134290	 1.981586	-6.575838	-34.096010	-21.686070	-25.072250	-2.027600	 6.559038	 9.033609	-5.188889	 0.308190	 3.541030	-5.234859	 0.342567	 0.430617	-1.312642	-3.834306	-2.153435	-4.754135	-5.696592	-2.982519	 95.592550	 66.304620	-162.738400	-13.769130	 9.621960	 54.747780	 5.269667	 10.794820	 39.683640	 14.329780	-19.381500	 19.990280	 1.803333	 3.979147	-15.098590	 4.898592	 3.004813	-9.310344	 5.224449	 0.395017	 2.014677
-0.021814	 0.246150	 1.092872	 2.167769	 26.678320	-5.132724	 13.647500	-68.158940	-169.702800	 4.167741	-60.603830	 3.996096	 26.780830	 79.884080	-29.598520	-2.385833	 28.452750	 0.000004	 16.039050	-69.951310	-163.301600	-13.900310	-64.308540	-7.900134	 12.944850	 81.061520	 3.081811	 2.384659	 28.388700	-0.000001	-6.483477	 13.316660	-0.166738	-0.488533	 21.805910	-0.679720	-5.540656	-5.707140	 2.421250	-94.417970	 74.996640	 160.547800	 8.609677	 8.382051	-58.597300	-21.724560	 1.961249	-6.548296	-34.204570	-21.982150	-25.711430	-2.027600	 6.559038	 9.033609	-5.188889	 0.308190	 3.541030	-5.234859	 0.342567	 0.430617	-1.439466	-7.363306	-2.295023	-4.740461	-2.352735	-2.570572	 95.118340	 67.239650	-163.214200	-14.766210	 11.002520	 54.687930	 4.726634	 10.967100	 41.298890	 14.134120	-19.720000	 20.167740	 1.803333	 3.979147	-15.098590	 4.898592	 3.004813	-9.310344	 5.224449	 0.395017	 2.014677
